<?xml version="1.0" ?><!-- Uploaded to: SVG Repo, www.svgrepo.com, Generator: SVG Repo Mixer Tools -->
<svg width="800px" height="800px" viewBox="0 0 24 24" fill="none" xmlns="http://www.w3.org/2000/svg"><path d="M16.5 21V17.5276C16.5 16.6257 17.1036 15.8354 17.9738 15.5981L21.1644 14.7279C21.6578 14.5933 22 14.1453 22 13.6339C22 13.0077 21.4923 12.5 20.8661 12.5H3.14677C2.51343 12.5 2 13.0134 2 13.6468C2 14.1532 2.33218 14.5997 2.81725 14.7452L5.5747 15.5724C6.42066 15.8262 7 16.6048 7 17.4881V19M21.5 8L19.5 6M21.5 8L19.5 10.2592M21.5 8H18M2 8L4 6M2 8L4 10.2592M2 8H5.5M16 6.5C16 8.70914 14.2091 10.5 12 10.5C9.79086 10.5 8 8.70914 8 6.5C8 4.29086 9.79086 2.5 12 2.5C14.2091 2.5 16 4.29086 16 6.5Z" stroke="#000000" stroke-linecap="round" stroke-linejoin="round" stroke-width="1.4"/></svg>